<?xml version="1.0" standalone="no"?>
<!DOCTYPE svg PUBLIC "-//W3C//DTD SVG 1.1//EN" "http://www.w3.org/Graphics/SVG/1.1/DTD/svg11.dtd">
<svg width="100%" height="100%" viewBox="0 0 567 567" version="1.1" xmlns="http://www.w3.org/2000/svg" xmlns:xlink="http://www.w3.org/1999/xlink" xml:space="preserve" style="fill-rule:evenodd;clip-rule:evenodd;stroke-linejoin:round;stroke-miterlimit:1.41421;">
    <g transform="matrix(1,0,0,1,-803.15,-472.441)">
        <path d="M992.126,826.791L992.126,685.021C972.38,699.862 947.84,708.661 921.26,708.661C856.073,708.661 803.15,655.738 803.15,590.551C803.15,525.364 856.073,472.441 921.26,472.441C986.447,472.441 1039.37,525.364 1039.37,590.551L1039.37,921.26C1039.37,882.653 1020.81,848.348 992.126,826.791ZM921.26,566.929C934.297,566.929 944.882,577.514 944.882,590.551C944.882,603.589 934.297,614.173 921.26,614.173C908.222,614.173 897.638,603.589 897.638,590.551C897.638,577.514 908.222,566.929 921.26,566.929Z" style="fill:rgb(160,212,104);"/>
        <path d="M921.26,803.15C986.447,803.15 1039.37,856.073 1039.37,921.26C1039.37,986.447 986.447,1039.37 921.26,1039.37C856.073,1039.37 803.15,986.447 803.15,921.26C803.15,856.073 856.073,803.15 921.26,803.15ZM921.26,897.638C934.297,897.638 944.882,908.222 944.882,921.26C944.882,934.297 934.297,944.882 921.26,944.882C908.222,944.882 897.638,934.297 897.638,921.26C897.638,908.222 908.222,897.638 921.26,897.638Z" style="fill:rgb(74,137,220);"/>
        <path d="M1133.86,921.26L1133.86,590.551C1133.86,525.364 1186.78,472.441 1251.97,472.441C1317.15,472.441 1370.08,525.364 1370.08,590.551C1370.08,655.738 1317.15,708.661 1251.97,708.661C1225.39,708.661 1200.85,699.862 1181.1,685.021L1181.1,826.791C1152.61,848.205 1134.1,882.201 1133.86,920.496L1133.86,921.26ZM1251.97,566.929C1265.01,566.929 1275.59,577.514 1275.59,590.551C1275.59,603.589 1265.01,614.173 1251.97,614.173C1238.93,614.173 1228.35,603.589 1228.35,590.551C1228.35,577.514 1238.93,566.929 1251.97,566.929Z" style="fill:rgb(74,137,220);"/>
        <path d="M1251.97,803.15C1317.15,803.15 1370.08,856.073 1370.08,921.26C1370.08,986.447 1317.15,1039.37 1251.97,1039.37C1186.78,1039.37 1133.86,986.447 1133.86,921.26C1133.86,856.073 1186.78,803.15 1251.97,803.15ZM1251.97,897.638C1265.01,897.638 1275.59,908.222 1275.59,921.26C1275.59,934.297 1265.01,944.882 1251.97,944.882C1238.93,944.882 1228.35,934.297 1228.35,921.26C1228.35,908.222 1238.93,897.638 1251.97,897.638Z" style="fill:rgb(160,212,104);"/>
    </g>
</svg>
